<svg width="17" height="13" viewBox="0 0 17 13" fill="none" xmlns="http://www.w3.org/2000/svg">
<g clip-path="url(#clip0_18_148)">
<path d="M0 1.52791V1.08333C0 0.796016 0.111942 0.520465 0.311199 0.317301C0.510456 0.114137 0.780707 0 1.0625 0L15.9375 0C16.2193 0 16.4895 0.114137 16.6888 0.317301C16.8881 0.520465 17 0.796016 17 1.08333V1.52791L8.5 6.94457L0 1.52791ZM8.78156 8.0428C8.69711 8.09655 8.59955 8.12504 8.5 8.12504C8.40045 8.12504 8.30289 8.09655 8.21844 8.0428L0 2.80543V11.9167C0 12.204 0.111942 12.4795 0.311199 12.6827C0.510456 12.8859 0.780707 13 1.0625 13H15.9375C16.2193 13 16.4895 12.8859 16.6888 12.6827C16.8881 12.4795 17 12.204 17 11.9167V2.80543L8.78156 8.0428Z" fill="white"/>
</g>
<defs>
<clipPath id="clip0_18_148">
<rect width="17" height="13" fill="white"/>
</clipPath>
</defs>
</svg>
