<svg width="22" height="22" viewBox="0 0 22 22" fill="none" xmlns="http://www.w3.org/2000/svg">
<path d="M2.5 6.02791V5.58333C2.5 5.29602 2.61194 5.02047 2.8112 4.8173C3.01046 4.61414 3.28071 4.5 3.5625 4.5H18.4375C18.7193 4.5 18.9895 4.61414 19.1888 4.8173C19.3881 5.02047 19.5 5.29602 19.5 5.58333V6.02791L11 11.4446L2.5 6.02791ZM11.2816 12.5428C11.1971 12.5965 11.0996 12.625 11 12.625C10.9004 12.625 10.8029 12.5965 10.7184 12.5428L2.5 7.30543V16.4167C2.5 16.704 2.61194 16.9795 2.8112 17.1827C3.01046 17.3859 3.28071 17.5 3.5625 17.5H18.4375C18.7193 17.5 18.9895 17.3859 19.1888 17.1827C19.3881 16.9795 19.5 16.704 19.5 16.4167V7.30543L11.2816 12.5428Z" fill="white"/>
</svg>
