<svg xmlns="http://www.w3.org/2000/svg" width="22" height="22" fill="none" viewBox="0 0 22 22"><g clip-path="url(#clip0_18_138)"><path fill="#fff" fill-rule="evenodd" d="M2.92806 7.2196C3.14604 11.6961 9.27031 17.3964 13.4181 18.7209C16.2016 19.6096 20.3414 17.8566 18.7032 16.2181L16.1167 13.6303C15.7235 13.2368 15.0861 13.2825 14.7018 13.6667L13.2166 15.1515C10.0214 13.4106 8.68076 12.0401 6.92535 8.86408L8.41288 7.37779C8.79774 6.99283 8.84132 6.35644 8.44776 5.96288L5.86022 3.37525C4.41206 1.92708 2.84548 5.52697 2.92806 7.2196Z" clip-rule="evenodd"/><path fill="#fff" fill-rule="evenodd" d="M2.92805 7.21962L6.92534 8.86408L8.41288 7.37779C8.79773 6.99283 8.84132 6.35643 8.44776 5.96288L5.86022 3.37525C4.41205 1.92708 2.84548 5.527 2.92805 7.21962Z" clip-rule="evenodd"/><path fill="#fff" fill-rule="evenodd" d="M13.4181 18.7211C16.2016 19.6098 20.3413 17.8567 18.7032 16.2182L16.1167 13.6305C15.7234 13.2369 15.0861 13.2827 14.7018 13.6669L13.2166 15.1516L13.4181 18.7211Z" clip-rule="evenodd"/></g><defs><clipPath id="clip0_18_138"><rect width="22" height="22" fill="#fff"/></clipPath></defs></svg>